<svg width="173" height="43" viewBox="0 0 173 43" fill="none" xmlns="http://www.w3.org/2000/svg">
<path d="M32.548 39C32.388 39 32.264 38.956 32.176 38.868C32.088 38.772 32.044 38.644 32.044 38.484V30.996C32.044 30.828 32.084 30.7 32.164 30.612C32.252 30.524 32.376 30.48 32.536 30.48C32.696 30.48 32.816 30.524 32.896 30.612C32.984 30.7 33.028 30.828 33.028 30.996V38.136H36.964C37.108 38.136 37.22 38.176 37.3 38.256C37.38 38.328 37.42 38.432 37.42 38.568C37.42 38.704 37.38 38.812 37.3 38.892C37.22 38.964 37.108 39 36.964 39H32.548ZM40.2636 39.108C39.8636 39.108 39.5036 39.032 39.1836 38.88C38.8716 38.72 38.6236 38.504 38.4396 38.232C38.2556 37.96 38.1636 37.656 38.1636 37.32C38.1636 36.888 38.2716 36.548 38.4876 36.3C38.7116 36.052 39.0756 35.876 39.5796 35.772C40.0916 35.668 40.7876 35.616 41.6676 35.616H42.2076V36.252H41.6796C41.0316 36.252 40.5196 36.284 40.1436 36.348C39.7756 36.404 39.5156 36.504 39.3636 36.648C39.2196 36.792 39.1476 36.996 39.1476 37.26C39.1476 37.588 39.2596 37.856 39.4836 38.064C39.7156 38.272 40.0276 38.376 40.4196 38.376C40.7396 38.376 41.0196 38.3 41.2596 38.148C41.5076 37.996 41.6996 37.788 41.8356 37.524C41.9796 37.26 42.0516 36.956 42.0516 36.612V35.244C42.0516 34.748 41.9516 34.392 41.7516 34.176C41.5516 33.952 41.2236 33.84 40.7676 33.84C40.4876 33.84 40.2076 33.876 39.9276 33.948C39.6476 34.02 39.3516 34.136 39.0396 34.296C38.9276 34.352 38.8316 34.372 38.7516 34.356C38.6716 34.332 38.6076 34.288 38.5596 34.224C38.5116 34.16 38.4836 34.088 38.4756 34.008C38.4676 33.92 38.4836 33.836 38.5236 33.756C38.5716 33.676 38.6436 33.612 38.7396 33.564C39.0916 33.388 39.4396 33.26 39.7836 33.18C40.1276 33.1 40.4556 33.06 40.7676 33.06C41.2716 33.06 41.6876 33.144 42.0156 33.312C42.3436 33.472 42.5876 33.72 42.7476 34.056C42.9076 34.384 42.9876 34.808 42.9876 35.328V38.58C42.9876 38.74 42.9476 38.864 42.8676 38.952C42.7956 39.04 42.6876 39.084 42.5436 39.084C42.3916 39.084 42.2756 39.04 42.1956 38.952C42.1156 38.864 42.0756 38.74 42.0756 38.58V37.644H42.1836C42.1196 37.948 41.9956 38.208 41.8116 38.424C41.6356 38.64 41.4156 38.808 41.1516 38.928C40.8876 39.048 40.5916 39.108 40.2636 39.108ZM46.8549 39.108C46.3829 39.108 45.9909 39.024 45.6789 38.856C45.3749 38.68 45.1429 38.42 44.9829 38.076C44.8309 37.732 44.7549 37.304 44.7549 36.792V33.576C44.7549 33.408 44.7949 33.284 44.8749 33.204C44.9629 33.124 45.0829 33.084 45.2349 33.084C45.3949 33.084 45.5149 33.124 45.5949 33.204C45.6829 33.284 45.7269 33.408 45.7269 33.576V36.78C45.7269 37.292 45.8309 37.676 46.0389 37.932C46.2549 38.18 46.5909 38.304 47.0469 38.304C47.5429 38.304 47.9469 38.136 48.2589 37.8C48.5709 37.464 48.7269 37.024 48.7269 36.48V33.576C48.7269 33.408 48.7669 33.284 48.8469 33.204C48.9349 33.124 49.0589 33.084 49.2189 33.084C49.3709 33.084 49.4869 33.124 49.5669 33.204C49.6549 33.284 49.6989 33.408 49.6989 33.576V38.58C49.6989 38.916 49.5429 39.084 49.2309 39.084C49.0789 39.084 48.9589 39.04 48.8709 38.952C48.7909 38.864 48.7509 38.74 48.7509 38.58V37.488L48.9069 37.656C48.7469 38.128 48.4829 38.488 48.1149 38.736C47.7549 38.984 47.3349 39.108 46.8549 39.108ZM54.0975 41.268C53.6735 41.268 53.2575 41.216 52.8495 41.112C52.4495 41.016 52.0855 40.86 51.7575 40.644C51.6615 40.588 51.5975 40.52 51.5655 40.44C51.5415 40.36 51.5375 40.28 51.5535 40.2C51.5695 40.128 51.6055 40.06 51.6615 39.996C51.7175 39.94 51.7815 39.904 51.8535 39.888C51.9335 39.872 52.0135 39.884 52.0935 39.924C52.4455 40.14 52.7815 40.288 53.1015 40.368C53.4215 40.448 53.7375 40.488 54.0495 40.488C54.6175 40.488 55.0455 40.336 55.3335 40.032C55.6295 39.728 55.7775 39.288 55.7775 38.712V37.356H55.8975C55.7775 37.82 55.5215 38.188 55.1295 38.46C54.7455 38.732 54.2935 38.868 53.7735 38.868C53.2375 38.868 52.7735 38.748 52.3815 38.508C51.9895 38.26 51.6855 37.916 51.4695 37.476C51.2615 37.036 51.1575 36.528 51.1575 35.952C51.1575 35.52 51.2175 35.128 51.3375 34.776C51.4575 34.416 51.6295 34.112 51.8535 33.864C52.0855 33.608 52.3615 33.412 52.6815 33.276C53.0095 33.132 53.3735 33.06 53.7735 33.06C54.3015 33.06 54.7575 33.196 55.1415 33.468C55.5255 33.732 55.7735 34.092 55.8855 34.548L55.7655 34.692V33.576C55.7655 33.416 55.8055 33.296 55.8855 33.216C55.9735 33.128 56.0935 33.084 56.2455 33.084C56.4055 33.084 56.5255 33.128 56.6055 33.216C56.6855 33.296 56.7255 33.416 56.7255 33.576V38.58C56.7255 39.468 56.5015 40.136 56.0535 40.584C55.6135 41.04 54.9615 41.268 54.0975 41.268ZM53.9535 38.076C54.3295 38.076 54.6535 37.992 54.9255 37.824C55.1975 37.648 55.4055 37.4 55.5495 37.08C55.7015 36.76 55.7775 36.384 55.7775 35.952C55.7775 35.304 55.6135 34.792 55.2855 34.416C54.9575 34.032 54.5135 33.84 53.9535 33.84C53.5855 33.84 53.2655 33.928 52.9935 34.104C52.7215 34.272 52.5095 34.516 52.3575 34.836C52.2135 35.148 52.1415 35.52 52.1415 35.952C52.1415 36.6 52.3055 37.116 52.6335 37.5C52.9615 37.884 53.4015 38.076 53.9535 38.076ZM59.0287 39.084C58.8687 39.084 58.7487 39.04 58.6687 38.952C58.5887 38.864 58.5487 38.74 58.5487 38.58V30.948C58.5487 30.788 58.5887 30.668 58.6687 30.588C58.7487 30.5 58.8687 30.456 59.0287 30.456C59.1807 30.456 59.3007 30.5 59.3887 30.588C59.4767 30.668 59.5207 30.788 59.5207 30.948V34.464H59.3647C59.5327 34 59.8047 33.652 60.1807 33.42C60.5647 33.18 61.0047 33.06 61.5007 33.06C61.9647 33.06 62.3487 33.144 62.6527 33.312C62.9647 33.48 63.1967 33.736 63.3487 34.08C63.5007 34.416 63.5767 34.844 63.5767 35.364V38.58C63.5767 38.74 63.5327 38.864 63.4447 38.952C63.3647 39.04 63.2487 39.084 63.0967 39.084C62.9367 39.084 62.8127 39.04 62.7247 38.952C62.6447 38.864 62.6047 38.74 62.6047 38.58V35.424C62.6047 34.88 62.4967 34.484 62.2807 34.236C62.0727 33.98 61.7367 33.852 61.2727 33.852C60.7367 33.852 60.3087 34.02 59.9887 34.356C59.6767 34.684 59.5207 35.124 59.5207 35.676V38.58C59.5207 38.916 59.3567 39.084 59.0287 39.084ZM65.945 40.14C65.865 40.244 65.781 40.304 65.693 40.32C65.605 40.336 65.529 40.32 65.465 40.272C65.401 40.224 65.365 40.156 65.357 40.068C65.357 39.98 65.397 39.884 65.477 39.78C65.605 39.612 65.693 39.44 65.741 39.264C65.789 39.096 65.813 38.94 65.813 38.796L65.861 39.048C65.653 39.048 65.485 38.988 65.357 38.868C65.237 38.74 65.177 38.58 65.177 38.388C65.177 38.196 65.233 38.04 65.345 37.92C65.465 37.792 65.621 37.728 65.813 37.728C66.021 37.728 66.185 37.8 66.305 37.944C66.425 38.08 66.485 38.28 66.485 38.544C66.485 38.712 66.469 38.884 66.437 39.06C66.405 39.244 66.349 39.428 66.269 39.612C66.189 39.796 66.081 39.972 65.945 40.14ZM74.0373 39.084C73.8933 39.084 73.7773 39.048 73.6893 38.976C73.6013 38.896 73.5293 38.78 73.4733 38.628L70.8213 31.056C70.7653 30.888 70.7773 30.748 70.8573 30.636C70.9453 30.516 71.0813 30.456 71.2653 30.456C71.4013 30.456 71.5093 30.492 71.5893 30.564C71.6693 30.628 71.7373 30.732 71.7933 30.876L74.2773 38.16H73.8573L76.3893 30.912C76.4453 30.76 76.5133 30.648 76.5933 30.576C76.6733 30.496 76.7813 30.456 76.9173 30.456C77.0453 30.456 77.1453 30.496 77.2173 30.576C77.2973 30.648 77.3653 30.76 77.4213 30.912L79.9173 38.16H79.5453L82.0533 30.876C82.0933 30.74 82.1533 30.636 82.2333 30.564C82.3213 30.492 82.4333 30.456 82.5693 30.456C82.7373 30.456 82.8613 30.512 82.9413 30.624C83.0213 30.736 83.0293 30.88 82.9653 31.056L80.3013 38.628C80.2453 38.78 80.1733 38.896 80.0853 38.976C80.0053 39.048 79.8893 39.084 79.7373 39.084C79.5933 39.084 79.4773 39.048 79.3893 38.976C79.3093 38.896 79.2373 38.78 79.1733 38.628L76.7613 31.68H77.0253L74.5893 38.628C74.5333 38.78 74.4653 38.896 74.3853 38.976C74.3053 39.048 74.1893 39.084 74.0373 39.084ZM85.5566 39.108C85.1566 39.108 84.7966 39.032 84.4766 38.88C84.1646 38.72 83.9166 38.504 83.7326 38.232C83.5486 37.96 83.4566 37.656 83.4566 37.32C83.4566 36.888 83.5646 36.548 83.7806 36.3C84.0046 36.052 84.3686 35.876 84.8726 35.772C85.3846 35.668 86.0806 35.616 86.9606 35.616H87.5006V36.252H86.9726C86.3246 36.252 85.8126 36.284 85.4366 36.348C85.0686 36.404 84.8086 36.504 84.6566 36.648C84.5126 36.792 84.4406 36.996 84.4406 37.26C84.4406 37.588 84.5526 37.856 84.7766 38.064C85.0086 38.272 85.3206 38.376 85.7126 38.376C86.0326 38.376 86.3126 38.3 86.5526 38.148C86.8006 37.996 86.9926 37.788 87.1286 37.524C87.2726 37.26 87.3446 36.956 87.3446 36.612V35.244C87.3446 34.748 87.2446 34.392 87.0446 34.176C86.8446 33.952 86.5166 33.84 86.0606 33.84C85.7806 33.84 85.5006 33.876 85.2206 33.948C84.9406 34.02 84.6446 34.136 84.3326 34.296C84.2206 34.352 84.1246 34.372 84.0446 34.356C83.9646 34.332 83.9006 34.288 83.8526 34.224C83.8046 34.16 83.7766 34.088 83.7686 34.008C83.7606 33.92 83.7766 33.836 83.8166 33.756C83.8646 33.676 83.9366 33.612 84.0326 33.564C84.3846 33.388 84.7326 33.26 85.0766 33.18C85.4206 33.1 85.7486 33.06 86.0606 33.06C86.5646 33.06 86.9806 33.144 87.3086 33.312C87.6366 33.472 87.8806 33.72 88.0406 34.056C88.2006 34.384 88.2806 34.808 88.2806 35.328V38.58C88.2806 38.74 88.2406 38.864 88.1606 38.952C88.0886 39.04 87.9806 39.084 87.8366 39.084C87.6846 39.084 87.5686 39.04 87.4886 38.952C87.4086 38.864 87.3686 38.74 87.3686 38.58V37.644H87.4766C87.4126 37.948 87.2886 38.208 87.1046 38.424C86.9286 38.64 86.7086 38.808 86.4446 38.928C86.1806 39.048 85.8846 39.108 85.5566 39.108ZM92.4239 39.108C91.9679 39.108 91.5839 39.028 91.2719 38.868C90.9679 38.7 90.7399 38.46 90.5879 38.148C90.4359 37.828 90.3599 37.44 90.3599 36.984V33.924H89.5559C89.4199 33.924 89.3159 33.892 89.2439 33.828C89.1719 33.756 89.1359 33.66 89.1359 33.54C89.1359 33.42 89.1719 33.328 89.2439 33.264C89.3159 33.2 89.4199 33.168 89.5559 33.168H90.3599V31.788C90.3599 31.628 90.4039 31.508 90.4919 31.428C90.5799 31.34 90.6999 31.296 90.8519 31.296C91.0039 31.296 91.1199 31.34 91.1999 31.428C91.2879 31.508 91.3319 31.628 91.3319 31.788V33.168H92.8439C92.9799 33.168 93.0839 33.2 93.1559 33.264C93.2279 33.328 93.2639 33.42 93.2639 33.54C93.2639 33.66 93.2279 33.756 93.1559 33.828C93.0839 33.892 92.9799 33.924 92.8439 33.924H91.3319V36.888C91.3319 37.344 91.4279 37.692 91.6199 37.932C91.8119 38.164 92.1239 38.28 92.5559 38.28C92.7079 38.28 92.8359 38.264 92.9399 38.232C93.0519 38.2 93.1439 38.184 93.2159 38.184C93.2879 38.176 93.3479 38.2 93.3959 38.256C93.4439 38.312 93.4679 38.408 93.4679 38.544C93.4679 38.64 93.4479 38.728 93.4079 38.808C93.3759 38.888 93.3159 38.944 93.2279 38.976C93.1319 39.008 93.0039 39.036 92.8439 39.06C92.6919 39.092 92.5519 39.108 92.4239 39.108ZM96.6926 39.108C96.1086 39.108 95.6046 38.98 95.1806 38.724C94.7566 38.468 94.4286 38.112 94.1966 37.656C93.9726 37.192 93.8606 36.656 93.8606 36.048C93.8606 35.584 93.9246 35.168 94.0526 34.8C94.1806 34.432 94.3686 34.12 94.6166 33.864C94.8646 33.6 95.1606 33.4 95.5046 33.264C95.8566 33.128 96.2526 33.06 96.6926 33.06C96.9806 33.06 97.2806 33.104 97.5926 33.192C97.9046 33.28 98.1886 33.432 98.4446 33.648C98.5246 33.704 98.5766 33.772 98.6006 33.852C98.6246 33.932 98.6246 34.012 98.6006 34.092C98.5766 34.164 98.5366 34.228 98.4806 34.284C98.4246 34.332 98.3526 34.36 98.2646 34.368C98.1846 34.376 98.1006 34.348 98.0126 34.284C97.8046 34.124 97.5926 34.012 97.3766 33.948C97.1606 33.884 96.9526 33.852 96.7526 33.852C96.4406 33.852 96.1686 33.904 95.9366 34.008C95.7046 34.104 95.5086 34.244 95.3486 34.428C95.1886 34.612 95.0646 34.84 94.9766 35.112C94.8966 35.384 94.8566 35.7 94.8566 36.06C94.8566 36.756 95.0206 37.308 95.3486 37.716C95.6766 38.116 96.1446 38.316 96.7526 38.316C96.9526 38.316 97.1566 38.284 97.3646 38.22C97.5806 38.156 97.7966 38.044 98.0126 37.884C98.1006 37.82 98.1846 37.792 98.2646 37.8C98.3446 37.808 98.4126 37.84 98.4686 37.896C98.5246 37.944 98.5606 38.008 98.5766 38.088C98.6006 38.168 98.6006 38.248 98.5766 38.328C98.5526 38.4 98.5006 38.464 98.4206 38.52C98.1646 38.728 97.8846 38.88 97.5806 38.976C97.2766 39.064 96.9806 39.108 96.6926 39.108ZM100.255 39.084C100.095 39.084 99.9753 39.04 99.8953 38.952C99.8153 38.864 99.7753 38.74 99.7753 38.58V30.948C99.7753 30.788 99.8153 30.668 99.8953 30.588C99.9753 30.5 100.095 30.456 100.255 30.456C100.407 30.456 100.527 30.5 100.615 30.588C100.703 30.668 100.747 30.788 100.747 30.948V34.464H100.591C100.759 34 101.031 33.652 101.407 33.42C101.791 33.18 102.231 33.06 102.727 33.06C103.191 33.06 103.575 33.144 103.879 33.312C104.191 33.48 104.423 33.736 104.575 34.08C104.727 34.416 104.803 34.844 104.803 35.364V38.58C104.803 38.74 104.759 38.864 104.671 38.952C104.591 39.04 104.475 39.084 104.323 39.084C104.163 39.084 104.039 39.04 103.951 38.952C103.871 38.864 103.831 38.74 103.831 38.58V35.424C103.831 34.88 103.723 34.484 103.507 34.236C103.299 33.98 102.963 33.852 102.499 33.852C101.963 33.852 101.535 34.02 101.215 34.356C100.903 34.684 100.747 35.124 100.747 35.676V38.58C100.747 38.916 100.583 39.084 100.255 39.084ZM107.172 40.14C107.092 40.244 107.008 40.304 106.92 40.32C106.832 40.336 106.756 40.32 106.692 40.272C106.628 40.224 106.592 40.156 106.584 40.068C106.584 39.98 106.624 39.884 106.704 39.78C106.832 39.612 106.92 39.44 106.968 39.264C107.016 39.096 107.04 38.94 107.04 38.796L107.088 39.048C106.88 39.048 106.712 38.988 106.584 38.868C106.464 38.74 106.404 38.58 106.404 38.388C106.404 38.196 106.46 38.04 106.572 37.92C106.692 37.792 106.848 37.728 107.04 37.728C107.248 37.728 107.412 37.8 107.532 37.944C107.652 38.08 107.712 38.28 107.712 38.544C107.712 38.712 107.696 38.884 107.664 39.06C107.632 39.244 107.576 39.428 107.496 39.612C107.416 39.796 107.308 39.972 107.172 40.14ZM113.044 39.084C112.884 39.084 112.76 39.04 112.672 38.952C112.592 38.856 112.552 38.728 112.552 38.568V31.044C112.552 30.876 112.596 30.752 112.684 30.672C112.772 30.584 112.896 30.54 113.056 30.54H115.9C116.804 30.54 117.5 30.752 117.988 31.176C118.476 31.6 118.72 32.204 118.72 32.988C118.72 33.484 118.608 33.916 118.384 34.284C118.168 34.644 117.848 34.92 117.424 35.112C117 35.296 116.492 35.388 115.9 35.388L116.02 35.232H116.26C116.572 35.232 116.844 35.312 117.076 35.472C117.308 35.632 117.52 35.888 117.712 36.24L118.864 38.388C118.928 38.5 118.956 38.612 118.948 38.724C118.948 38.828 118.912 38.916 118.84 38.988C118.768 39.052 118.664 39.084 118.528 39.084C118.392 39.084 118.28 39.052 118.192 38.988C118.104 38.924 118.028 38.832 117.964 38.712L116.656 36.288C116.472 35.944 116.26 35.716 116.02 35.604C115.78 35.484 115.464 35.424 115.072 35.424H113.536V38.568C113.536 38.728 113.496 38.856 113.416 38.952C113.336 39.04 113.212 39.084 113.044 39.084ZM113.536 34.644H115.756C116.412 34.644 116.908 34.508 117.244 34.236C117.58 33.956 117.748 33.54 117.748 32.988C117.748 32.452 117.58 32.048 117.244 31.776C116.908 31.496 116.412 31.356 115.756 31.356H113.536V34.644ZM122.946 39.108C122.33 39.108 121.798 38.988 121.35 38.748C120.91 38.5 120.566 38.152 120.318 37.704C120.078 37.256 119.958 36.72 119.958 36.096C119.958 35.488 120.078 34.96 120.318 34.512C120.558 34.056 120.886 33.7 121.302 33.444C121.726 33.188 122.214 33.06 122.766 33.06C123.158 33.06 123.51 33.128 123.822 33.264C124.134 33.392 124.398 33.58 124.614 33.828C124.838 34.076 125.006 34.376 125.118 34.728C125.238 35.08 125.298 35.476 125.298 35.916C125.298 36.044 125.262 36.14 125.19 36.204C125.118 36.26 125.014 36.288 124.878 36.288H120.702V35.652H124.65L124.458 35.808C124.458 35.376 124.394 35.012 124.266 34.716C124.138 34.412 123.95 34.18 123.702 34.02C123.462 33.86 123.158 33.78 122.79 33.78C122.382 33.78 122.034 33.876 121.746 34.068C121.466 34.252 121.254 34.512 121.11 34.848C120.966 35.176 120.894 35.56 120.894 36V36.072C120.894 36.808 121.07 37.368 121.422 37.752C121.782 38.136 122.29 38.328 122.946 38.328C123.218 38.328 123.486 38.292 123.75 38.22C124.022 38.148 124.286 38.028 124.542 37.86C124.654 37.788 124.754 37.756 124.842 37.764C124.938 37.764 125.014 37.792 125.07 37.848C125.126 37.896 125.162 37.96 125.178 38.04C125.202 38.112 125.194 38.192 125.154 38.28C125.122 38.368 125.054 38.444 124.95 38.508C124.686 38.7 124.374 38.848 124.014 38.952C123.654 39.056 123.298 39.108 122.946 39.108ZM127.185 41.244C127.025 41.244 126.905 41.2 126.825 41.112C126.745 41.032 126.705 40.912 126.705 40.752V33.576C126.705 33.416 126.745 33.296 126.825 33.216C126.905 33.128 127.021 33.084 127.173 33.084C127.333 33.084 127.453 33.128 127.533 33.216C127.621 33.296 127.665 33.416 127.665 33.576V34.716L127.533 34.548C127.661 34.092 127.913 33.732 128.289 33.468C128.673 33.196 129.129 33.06 129.657 33.06C130.177 33.06 130.629 33.184 131.013 33.432C131.405 33.672 131.705 34.02 131.913 34.476C132.129 34.924 132.237 35.46 132.237 36.084C132.237 36.7 132.129 37.236 131.913 37.692C131.705 38.14 131.409 38.488 131.025 38.736C130.641 38.984 130.185 39.108 129.657 39.108C129.129 39.108 128.677 38.976 128.301 38.712C127.925 38.44 127.669 38.08 127.533 37.632H127.677V40.752C127.677 40.912 127.633 41.032 127.545 41.112C127.457 41.2 127.337 41.244 127.185 41.244ZM129.453 38.328C129.821 38.328 130.137 38.24 130.401 38.064C130.673 37.888 130.881 37.632 131.025 37.296C131.177 36.96 131.253 36.556 131.253 36.084C131.253 35.356 131.089 34.8 130.761 34.416C130.441 34.032 130.005 33.84 129.453 33.84C129.093 33.84 128.777 33.928 128.505 34.104C128.233 34.272 128.021 34.524 127.869 34.86C127.725 35.188 127.653 35.596 127.653 36.084C127.653 36.804 127.817 37.36 128.145 37.752C128.473 38.136 128.909 38.328 129.453 38.328ZM136.329 39.108C135.713 39.108 135.181 38.988 134.733 38.748C134.293 38.5 133.949 38.152 133.701 37.704C133.461 37.256 133.341 36.72 133.341 36.096C133.341 35.488 133.461 34.96 133.701 34.512C133.941 34.056 134.269 33.7 134.685 33.444C135.109 33.188 135.597 33.06 136.149 33.06C136.541 33.06 136.893 33.128 137.205 33.264C137.517 33.392 137.781 33.58 137.997 33.828C138.221 34.076 138.389 34.376 138.501 34.728C138.621 35.08 138.681 35.476 138.681 35.916C138.681 36.044 138.645 36.14 138.573 36.204C138.501 36.26 138.397 36.288 138.261 36.288H134.085V35.652H138.033L137.841 35.808C137.841 35.376 137.777 35.012 137.649 34.716C137.521 34.412 137.333 34.18 137.085 34.02C136.845 33.86 136.541 33.78 136.173 33.78C135.765 33.78 135.417 33.876 135.129 34.068C134.849 34.252 134.637 34.512 134.493 34.848C134.349 35.176 134.277 35.56 134.277 36V36.072C134.277 36.808 134.453 37.368 134.805 37.752C135.165 38.136 135.673 38.328 136.329 38.328C136.601 38.328 136.869 38.292 137.133 38.22C137.405 38.148 137.669 38.028 137.925 37.86C138.037 37.788 138.137 37.756 138.225 37.764C138.321 37.764 138.397 37.792 138.453 37.848C138.509 37.896 138.545 37.96 138.561 38.04C138.585 38.112 138.577 38.192 138.537 38.28C138.505 38.368 138.437 38.444 138.333 38.508C138.069 38.7 137.757 38.848 137.397 38.952C137.037 39.056 136.681 39.108 136.329 39.108ZM141.924 39.108C141.524 39.108 141.164 39.032 140.844 38.88C140.532 38.72 140.284 38.504 140.1 38.232C139.916 37.96 139.824 37.656 139.824 37.32C139.824 36.888 139.932 36.548 140.148 36.3C140.372 36.052 140.736 35.876 141.24 35.772C141.752 35.668 142.448 35.616 143.328 35.616H143.868V36.252H143.34C142.692 36.252 142.18 36.284 141.804 36.348C141.436 36.404 141.176 36.504 141.024 36.648C140.88 36.792 140.808 36.996 140.808 37.26C140.808 37.588 140.92 37.856 141.144 38.064C141.376 38.272 141.688 38.376 142.08 38.376C142.4 38.376 142.68 38.3 142.92 38.148C143.168 37.996 143.36 37.788 143.496 37.524C143.64 37.26 143.712 36.956 143.712 36.612V35.244C143.712 34.748 143.612 34.392 143.412 34.176C143.212 33.952 142.884 33.84 142.428 33.84C142.148 33.84 141.868 33.876 141.588 33.948C141.308 34.02 141.012 34.136 140.7 34.296C140.588 34.352 140.492 34.372 140.412 34.356C140.332 34.332 140.268 34.288 140.22 34.224C140.172 34.16 140.144 34.088 140.136 34.008C140.128 33.92 140.144 33.836 140.184 33.756C140.232 33.676 140.304 33.612 140.4 33.564C140.752 33.388 141.1 33.26 141.444 33.18C141.788 33.1 142.116 33.06 142.428 33.06C142.932 33.06 143.348 33.144 143.676 33.312C144.004 33.472 144.248 33.72 144.408 34.056C144.568 34.384 144.648 34.808 144.648 35.328V38.58C144.648 38.74 144.608 38.864 144.528 38.952C144.456 39.04 144.348 39.084 144.204 39.084C144.052 39.084 143.936 39.04 143.856 38.952C143.776 38.864 143.736 38.74 143.736 38.58V37.644H143.844C143.78 37.948 143.656 38.208 143.472 38.424C143.296 38.64 143.076 38.808 142.812 38.928C142.548 39.048 142.252 39.108 141.924 39.108ZM148.791 39.108C148.335 39.108 147.951 39.028 147.639 38.868C147.335 38.7 147.107 38.46 146.955 38.148C146.803 37.828 146.727 37.44 146.727 36.984V33.924H145.923C145.787 33.924 145.683 33.892 145.611 33.828C145.539 33.756 145.503 33.66 145.503 33.54C145.503 33.42 145.539 33.328 145.611 33.264C145.683 33.2 145.787 33.168 145.923 33.168H146.727V31.788C146.727 31.628 146.771 31.508 146.859 31.428C146.947 31.34 147.067 31.296 147.219 31.296C147.371 31.296 147.487 31.34 147.567 31.428C147.655 31.508 147.699 31.628 147.699 31.788V33.168H149.211C149.347 33.168 149.451 33.2 149.523 33.264C149.595 33.328 149.631 33.42 149.631 33.54C149.631 33.66 149.595 33.756 149.523 33.828C149.451 33.892 149.347 33.924 149.211 33.924H147.699V36.888C147.699 37.344 147.795 37.692 147.987 37.932C148.179 38.164 148.491 38.28 148.923 38.28C149.075 38.28 149.203 38.264 149.307 38.232C149.419 38.2 149.511 38.184 149.583 38.184C149.655 38.176 149.715 38.2 149.763 38.256C149.811 38.312 149.835 38.408 149.835 38.544C149.835 38.64 149.815 38.728 149.775 38.808C149.743 38.888 149.683 38.944 149.595 38.976C149.499 39.008 149.371 39.036 149.211 39.06C149.059 39.092 148.919 39.108 148.791 39.108ZM151.114 36.852C151.018 36.852 150.938 36.82 150.874 36.756C150.818 36.692 150.786 36.596 150.778 36.468L150.538 31.092C150.53 30.9 150.574 30.748 150.67 30.636C150.774 30.516 150.922 30.456 151.114 30.456C151.298 30.456 151.438 30.516 151.534 30.636C151.63 30.748 151.674 30.9 151.666 31.092L151.426 36.468C151.426 36.596 151.398 36.692 151.342 36.756C151.286 36.82 151.21 36.852 151.114 36.852ZM151.114 39.048C150.914 39.048 150.754 38.988 150.634 38.868C150.514 38.74 150.454 38.58 150.454 38.388C150.454 38.196 150.514 38.04 150.634 37.92C150.754 37.792 150.914 37.728 151.114 37.728C151.314 37.728 151.47 37.792 151.582 37.92C151.702 38.04 151.762 38.196 151.762 38.388C151.762 38.58 151.702 38.74 151.582 38.868C151.47 38.988 151.314 39.048 151.114 39.048Z" fill="#2ECC71"/>
<path d="M12.456 3.592H21.192V5.32H12.456V3.592ZM20.664 3.592H20.952L21.288 3.52L22.44 3.808C21.336 14.584 17.4 20.752 11.784 23.968C11.544 23.512 11.016 22.84 10.608 22.48C15.816 19.816 19.632 13.624 20.664 4.024V3.592ZM14.88 5.392C15.96 13.144 18.312 19.552 23.256 22.456C22.824 22.792 22.248 23.464 21.936 23.92C16.776 20.608 14.448 14.056 13.224 5.656L14.88 5.392ZM9.288 15.928L10.752 15.4C11.568 16.864 12.408 18.784 12.696 19.984L11.136 20.608C10.872 19.384 10.08 17.416 9.288 15.928ZM6.288 9.016H7.992V21.928C7.992 22.84 7.8 23.32 7.176 23.608C6.576 23.872 5.616 23.896 4.2 23.896C4.128 23.44 3.888 22.744 3.648 22.288C4.68 22.312 5.616 22.312 5.928 22.288C6.216 22.288 6.288 22.192 6.288 21.928V9.016ZM3.144 8.272H11.448V9.88H3.144V8.272ZM1.44 12.568H12.528V14.176H1.44V12.568ZM3.12 15.544L4.704 15.88C4.152 18.04 3.24 20.248 2.28 21.712C1.944 21.472 1.248 21.064 0.864 20.92C1.848 19.528 2.664 17.512 3.12 15.544ZM6.168 1.864H7.128V2.248H7.68V2.728C6.504 4.792 4.536 7.576 1.608 9.88C1.368 9.496 0.84 8.944 0.48 8.68C3.168 6.712 5.136 4 6.168 1.864ZM6.48 1.864H7.872C9.648 3.328 11.76 5.44 12.792 6.856L11.496 8.2C10.512 6.808 8.52 4.552 6.84 3.16H6.48V1.864ZM41.6953 20.9922C42.0938 20.9922 42.293 21.1484 42.293 21.4609C42.293 21.6016 42.207 21.7266 42.0352 21.8359C41.8633 21.9453 41.5664 22 41.1445 22H31.2188V5.41797C34.2969 5.41797 37.375 5.41797 40.4531 5.41797L41.4141 5.38281C42 5.38281 42.293 5.55469 42.293 5.89844C42.293 6.03125 42.2422 6.15625 42.1406 6.27344C42.0469 6.38281 41.9375 6.4375 41.8125 6.4375C41.6094 6.4375 41.3945 6.41406 41.168 6.36719C40.832 6.29688 40.3711 6.26172 39.7852 6.26172H37.1953V9.83594H39.3281C39.3281 9.83594 39.8086 9.81641 40.7695 9.77734C40.9414 9.77734 41.0859 9.82031 41.2031 9.90625C41.3281 9.98438 41.3906 10.0977 41.3906 10.2461C41.3906 10.5742 41.1719 10.7383 40.7344 10.7383L40.2305 10.7266C39.9727 10.7031 39.7578 10.6914 39.5859 10.6914H37.1953V21.1445H39.7852C40.3633 21.1445 40.7734 21.1211 41.0156 21.0742C41.3047 21.0195 41.5312 20.9922 41.6953 20.9922ZM53.3555 22.2227C52.2695 22.2227 51.2188 21.9766 50.2031 21.4844V25.75H45.3867V9.48438H50.2031V10.1289C51.2266 9.55859 52.2734 9.27344 53.3438 9.27344C54.4141 9.27344 55.3594 9.43359 56.1797 9.75391C57 10.0742 57.7031 10.5156 58.2891 11.0781C59.5 12.2656 60.1055 13.7852 60.1055 15.6367C60.1055 17.5039 59.5078 19.0547 58.3125 20.2891C57.0781 21.5781 55.4258 22.2227 53.3555 22.2227ZM53.3203 10.1289C52.1641 10.1289 51.125 10.4492 50.2031 11.0898V20.4414C51.2578 21.0508 52.4062 21.3555 53.6484 21.3555H53.9531C54.0469 21.3555 54.1367 21.3477 54.2227 21.332V10.1992C53.9258 10.1523 53.625 10.1289 53.3203 10.1289ZM65.5664 7.43359C64.7617 7.43359 64.1328 7.25391 63.6797 6.89453C63.2266 6.53516 63 6.0625 63 5.47656C63 4.98438 63.25 4.5625 63.75 4.21094C64.2812 3.83594 64.8438 3.64844 65.4375 3.64844C66.0312 3.64844 66.4883 3.70703 66.8086 3.82422C67.1367 3.94141 67.4141 4.09375 67.6406 4.28125C68.0938 4.66406 68.3203 5.10938 68.3203 5.61719C68.3203 6.125 68.0625 6.55469 67.5469 6.90625C67.0312 7.25781 66.3711 7.43359 65.5664 7.43359ZM63.1055 9.48438H68.1445V22H63.1055V9.48438ZM76.6758 21.25C77.043 21.3203 77.4102 21.3555 77.7773 21.3555C78.1523 21.3555 78.5117 21.3281 78.8555 21.2734C79.207 21.2109 79.5391 21.125 79.8516 21.0156C80.5156 20.7812 81.0508 20.4844 81.457 20.125C81.7461 19.875 81.957 19.75 82.0898 19.75C82.3867 19.75 82.5352 19.8828 82.5352 20.1484C82.5352 20.4141 82.293 20.7305 81.8086 21.0977C80.6836 21.8477 79.332 22.2227 77.7539 22.2227C75.6992 22.2227 74.0391 21.6055 72.7734 20.3711C71.5312 19.1523 70.9102 17.5703 70.9102 15.625C70.9102 13.7812 71.5703 12.2578 72.8906 11.0547C74.2031 9.86719 75.8516 9.27344 77.8359 9.27344C78.9688 9.27344 80.0586 9.50781 81.1055 9.97656C81.9023 10.3203 82.3008 10.6758 82.3008 11.043C82.3008 11.1992 82.2539 11.3203 82.1602 11.4062C82.0742 11.4844 81.9766 11.5234 81.8672 11.5234C81.7031 11.5234 81.4922 11.4336 81.2344 11.2539C80.7266 10.7695 79.9727 10.4297 78.9727 10.2344C78.6133 10.1641 78.2188 10.1289 77.7891 10.1289C77.3594 10.1289 76.9883 10.1602 76.6758 10.2227V21.25ZM93.5273 19.9141C92.0977 19.9141 91.1211 19.9023 90.5977 19.8789L90.2578 20.6875C90.1562 20.9141 90.0625 21.1523 89.9766 21.4023C89.7969 21.8867 89.5469 22.1289 89.2266 22.1289C89.0781 22.1289 88.957 22.082 88.8633 21.9883C88.7695 21.8945 88.7227 21.7969 88.7227 21.6953C88.7227 21.5234 88.7969 21.332 88.9453 21.1211C89.1797 20.793 89.4102 20.3633 89.6367 19.832C88.9648 19.7695 88.6289 19.5742 88.6289 19.2461C88.6289 18.918 88.8203 18.7539 89.2031 18.7539C89.4375 18.7539 89.7109 18.793 90.0234 18.8711L95.8711 4.66797L103.887 22H97.7812L96.8086 19.9141H93.5273ZM90.9727 18.9648C91.7227 19.0273 92.3945 19.0586 92.9883 19.0586H96.4219L93.4922 12.7422L90.9727 18.9648ZM115.113 10.7617C114.918 10.6367 114.707 10.5742 114.48 10.5742C114.254 10.5742 114.02 10.6289 113.777 10.7383C113.535 10.8398 113.281 10.9844 113.016 11.1719C112.461 11.5703 111.949 12.1016 111.48 12.7656V22H106.441V9.48438H111.48V11.4883C112.816 10.0117 114.328 9.27344 116.016 9.27344C118.773 9.27344 120.152 10.6094 120.152 13.2812V22H115.113V10.7617ZM126.457 7.43359C125.652 7.43359 125.023 7.25391 124.57 6.89453C124.117 6.53516 123.891 6.0625 123.891 5.47656C123.891 4.98438 124.141 4.5625 124.641 4.21094C125.172 3.83594 125.734 3.64844 126.328 3.64844C126.922 3.64844 127.379 3.70703 127.699 3.82422C128.027 3.94141 128.305 4.09375 128.531 4.28125C128.984 4.66406 129.211 5.10938 129.211 5.61719C129.211 6.125 128.953 6.55469 128.438 6.90625C127.922 7.25781 127.262 7.43359 126.457 7.43359ZM123.996 9.48438H129.035V22H123.996V9.48438ZM146.449 12.7188C146.465 12.9062 146.473 13.0938 146.473 13.2812V22H141.445V10.6328C141.359 10.5938 141.258 10.5742 141.141 10.5742H140.766C140.156 10.5742 139.445 10.9922 138.633 11.8281C138.383 12.0859 138.145 12.3711 137.918 12.6836V22H132.879V9.48438H137.918V11.3711C139.238 9.97266 140.715 9.27344 142.348 9.27344C144.457 9.27344 145.758 10.0547 146.25 11.6172C146.922 10.8438 147.66 10.2617 148.465 9.87109C149.277 9.47266 150.094 9.27344 150.914 9.27344C152.312 9.27344 153.348 9.60547 154.02 10.2695C154.691 10.9336 155.027 11.9375 155.027 13.2812V22H150V10.6211C149.93 10.5898 149.754 10.5742 149.473 10.5742C149.191 10.5742 148.93 10.6289 148.688 10.7383C148.453 10.8398 148.211 10.9844 147.961 11.1719C147.414 11.5703 146.91 12.0859 146.449 12.7188ZM169.746 19.1523C170.051 19.1523 170.203 19.293 170.203 19.5742C170.203 19.7852 170.066 20.0352 169.793 20.3242C168.559 21.5898 166.867 22.2227 164.719 22.2227C162.789 22.2227 161.164 21.6406 159.844 20.4766C158.477 19.2656 157.793 17.7344 157.793 15.8828C157.793 13.9922 158.41 12.4375 159.645 11.2188C160.949 9.92188 162.684 9.27344 164.848 9.27344C166.582 9.27344 168.039 9.80078 169.219 10.8555C170.492 11.9883 171.129 13.4766 171.129 15.3203C171.129 15.5859 171.121 15.8672 171.105 16.1641H163.371V21.1914C163.902 21.3008 164.5 21.3555 165.164 21.3555C166.57 21.3555 167.77 20.8906 168.762 19.9609C168.965 19.7578 169.109 19.5977 169.195 19.4805C169.375 19.2617 169.559 19.1523 169.746 19.1523ZM166.617 10.3516C166.109 10.2031 165.535 10.1289 164.895 10.1289C164.254 10.1289 163.746 10.1719 163.371 10.2578V15.3086H166.617V10.3516Z" fill="#2ECC71"/>
</svg>
